<svg xmlns="http://www.w3.org/2000/svg" viewBox="0 0 332.38 95.47"><defs><style>.cls-1{fill:#231f20;}</style></defs><g id="Layer_1" data-name="Layer 1"><path class="cls-1" d="M14,12V32h-2.5V12H9.09V9.66h7.23V12Z" transform="translate(-2.24 -2.24)"/><path class="cls-1" d="M21.6,19.58h2.63V9.66h2.49V32H24.23v-10H21.6V32H19.1V9.66h2.5Z" transform="translate(-2.24 -2.24)"/><path class="cls-1" d="M30.13,9.66h6.16v2.41H32.62v7.42h3.2V21.9h-3.2v7.71h3.72V32H30.13Z" transform="translate(-2.24 -2.24)"/><path class="cls-1" d="M47.8,70.26l1.56-1.56h4.09L55,70.26v4.18h-2.5V71.35L52,70.83H50.82l-.52.52V85.8l.52.53H52l.52-.53V80.4H51.26V78.16H55V86.9l-1.56,1.56H49.36L47.8,86.9Z" transform="translate(-2.24 -2.24)"/><path class="cls-1" d="M60.49,83.36,60,88.46H57.5L59.87,68.7h3.59l2.41,19.76H63.28l-.5-5.1Zm1.15-12.09-1,10H62.6Z" transform="translate(-2.24 -2.24)"/><path class="cls-1" d="M72.87,88.46l-2-15.5v15.5H68.66V68.7h3.61l1.85,16L76,68.7h3.7V88.46H77.29V73l-2,15.5Z" transform="translate(-2.24 -2.24)"/><path class="cls-1" d="M83.06,68.7h6.16v2.13H85.56v6.55h3.19v2.13H85.56v6.82h3.72v2.13H83.06Z" transform="translate(-2.24 -2.24)"/><path class="cls-1" d="M44.27,51.14V48.49H55.78v2.65Z" transform="translate(-2.24 -2.24)"/><path class="cls-1" d="M58.8,5.24V58.8H5.24V5.24H58.8m3-3H2.24V61.8H61.8V2.24Z" transform="translate(-2.24 -2.24)"/><path class="cls-1" d="M94.74,41.2V94.7H41.24V41.2h53.5m3-3H38.24V97.7h59.5V38.2Z" transform="translate(-2.24 -2.24)"/></g><g id="Layer_2" data-name="Layer 2"><polygon class="cls-1" points="117.49 18.02 119.18 18.02 119.18 32.29 120.96 32.29 120.96 18.02 122.65 18.02 122.65 16.34 117.49 16.34 117.49 18.02"/><polygon class="cls-1" points="128.29 23.41 126.41 23.41 126.41 16.34 124.63 16.34 124.63 32.29 126.41 32.29 126.41 25.18 128.29 25.18 128.29 32.29 130.07 32.29 130.07 16.34 128.29 16.34 128.29 23.41"/><polygon class="cls-1" points="134.28 25.07 136.56 25.07 136.56 23.35 134.28 23.35 134.28 18.06 136.9 18.06 136.9 16.34 132.5 16.34 132.5 32.29 136.93 32.29 136.93 30.57 134.28 30.57 134.28 25.07"/><polygon class="cls-1" points="146.22 58.46 145.11 59.57 145.11 71.45 146.22 72.56 149.14 72.56 150.25 71.45 150.25 65.21 147.58 65.21 147.58 66.81 148.47 66.81 148.47 70.67 148.1 71.04 147.26 71.04 146.89 70.67 146.89 60.35 147.26 59.98 148.1 59.98 148.47 60.35 148.47 62.56 150.25 62.56 150.25 59.57 149.14 58.46 146.22 58.46"/><path class="cls-1" d="M156,60.7l-1.69,14.1h1.78l.35-3.64H158l.36,3.64h1.85l-1.72-14.1Zm.57,8.94.69-7.1.68,7.1Z" transform="translate(-2.24 -2.24)"/><polygon class="cls-1" points="161.6 61.5 163 72.56 164.76 72.56 166.15 61.5 166.15 72.56 167.84 72.56 167.84 58.46 165.2 58.46 163.88 69.85 162.57 58.46 159.99 58.46 159.99 72.56 161.6 72.56 161.6 61.5"/><polygon class="cls-1" points="174.7 71.04 172.05 71.04 172.05 66.18 174.33 66.18 174.33 64.66 172.05 64.66 172.05 59.98 174.66 59.98 174.66 58.46 170.27 58.46 170.27 72.56 174.7 72.56 174.7 71.04"/><path class="cls-1" d="M157.33,38.94V13.28H114.84v42.5h25.68V81.4H183V38.94ZM117,53.64V15.42h38.21V38.94H140.52v14.7Zm38.21-12.56V53.64H142.66V41.08Zm25.65,38.18H142.66V55.78h14.67V41.08h23.51Z" transform="translate(-2.24 -2.24)"/><path class="cls-1" d="M148.92,52.08a6.85,6.85,0,0,0-.66-1.66A23.48,23.48,0,0,0,146.58,48c-.61-.81-1-1.32-1.12-1.53a4.5,4.5,0,0,1-.5-1,2.74,2.74,0,0,1-.16-.89,1.91,1.91,0,0,1,.56-1.4,1.85,1.85,0,0,1,1.38-.57,2,2,0,0,1,1.44.59,3.14,3.14,0,0,1,.74,1.3,2.92,2.92,0,0,1,.7-1.29,2,2,0,0,1,1.45-.61,1.91,1.91,0,0,1,1.38.56,1.85,1.85,0,0,1,.56,1.34,3.44,3.44,0,0,1-.33,1.41,10.27,10.27,0,0,1-1.28,1.93,21.82,21.82,0,0,0-1.8,2.56A7.36,7.36,0,0,0,148.92,52.08Z" transform="translate(-2.24 -2.24)"/><polygon class="cls-1" points="193.31 18.02 195 18.02 195 32.29 196.78 32.29 196.78 18.02 198.47 18.02 198.47 16.34 193.31 16.34 193.31 18.02"/><polygon class="cls-1" points="204.11 23.41 202.24 23.41 202.24 16.34 200.45 16.34 200.45 32.29 202.24 32.29 202.24 25.18 204.11 25.18 204.11 32.29 205.89 32.29 205.89 16.34 204.11 16.34 204.11 23.41"/><polygon class="cls-1" points="210.1 25.07 212.38 25.07 212.38 23.35 210.1 23.35 210.1 18.06 212.72 18.06 212.72 16.34 208.32 16.34 208.32 32.29 212.75 32.29 212.75 30.57 210.1 30.57 210.1 25.07"/><polygon class="cls-1" points="222.04 58.46 220.93 59.57 220.93 71.45 222.04 72.56 224.96 72.56 226.07 71.45 226.07 65.21 223.4 65.21 223.4 66.81 224.29 66.81 224.29 70.67 223.92 71.04 223.08 71.04 222.71 70.67 222.71 60.35 223.08 59.98 223.92 59.98 224.29 60.35 224.29 62.56 226.07 62.56 226.07 59.57 224.96 58.46 222.04 58.46"/><path class="cls-1" d="M231.78,60.7l-1.69,14.1h1.78l.35-3.64h1.64l.35,3.64h1.85l-1.72-14.1Zm.57,8.94.69-7.1.69,7.1Z" transform="translate(-2.24 -2.24)"/><polygon class="cls-1" points="237.42 61.5 238.81 72.56 240.58 72.56 241.97 61.5 241.97 72.56 243.66 72.56 243.66 58.46 241.02 58.46 239.71 69.85 238.39 58.46 235.81 58.46 235.81 72.56 237.42 72.56 237.42 61.5"/><polygon class="cls-1" points="250.52 71.04 247.87 71.04 247.87 66.18 250.15 66.18 250.15 64.66 247.87 64.66 247.87 59.98 250.48 59.98 250.48 58.46 246.09 58.46 246.09 72.56 250.52 72.56 250.52 71.04"/><path class="cls-1" d="M233.16,38.94V13.28h-42.5v42.5h25.68V81.4H258.8V38.94ZM192.8,53.64V15.42H231V38.94H216.34v14.7ZM231,41.08V53.64H218.48V41.08Zm25.65,38.18H218.48V55.78h14.68V41.08h23.5Z" transform="translate(-2.24 -2.24)"/><path class="cls-1" d="M223.92,51.77V48h-3.79v-1.6h3.79V42.58h1.62v3.78h3.78V48h-3.78v3.81Z" transform="translate(-2.24 -2.24)"/><polygon class="cls-1" points="269.13 18.02 270.82 18.02 270.82 32.29 272.6 32.29 272.6 18.02 274.29 18.02 274.29 16.34 269.13 16.34 269.13 18.02"/><polygon class="cls-1" points="279.93 23.41 278.06 23.41 278.06 16.34 276.27 16.34 276.27 32.29 278.06 32.29 278.06 25.18 279.93 25.18 279.93 32.29 281.71 32.29 281.71 16.34 279.93 16.34 279.93 23.41"/><polygon class="cls-1" points="285.92 25.07 288.2 25.07 288.2 23.35 285.92 23.35 285.92 18.06 288.54 18.06 288.54 16.34 284.14 16.34 284.14 32.29 288.57 32.29 288.57 30.57 285.92 30.57 285.92 25.07"/><polygon class="cls-1" points="297.87 58.46 296.75 59.57 296.75 71.45 297.87 72.56 300.78 72.56 301.89 71.45 301.89 65.21 299.22 65.21 299.22 66.81 300.11 66.81 300.11 70.67 299.74 71.04 298.9 71.04 298.53 70.67 298.53 60.35 298.9 59.98 299.74 59.98 300.11 60.35 300.11 62.56 301.89 62.56 301.89 59.57 300.78 58.46 297.87 58.46"/><path class="cls-1" d="M307.6,60.7l-1.69,14.1h1.78l.35-3.64h1.64L310,74.8h1.85l-1.72-14.1Zm.57,8.94.69-7.1.69,7.1Z" transform="translate(-2.24 -2.24)"/><polygon class="cls-1" points="313.25 61.5 314.64 72.56 316.4 72.56 317.79 61.5 317.79 72.56 319.48 72.56 319.48 58.46 316.84 58.46 315.53 69.85 314.21 58.46 311.63 58.46 311.63 72.56 313.25 72.56 313.25 61.5"/><polygon class="cls-1" points="326.34 71.04 323.69 71.04 323.69 66.18 325.97 66.18 325.97 64.66 323.69 64.66 323.69 59.98 326.31 59.98 326.31 58.46 321.91 58.46 321.91 72.56 326.34 72.56 326.34 71.04"/><rect class="cls-1" x="294.23" y="44.05" width="8.21" height="1.89"/><path class="cls-1" d="M309,38.94V13.28h-42.5v42.5h25.68V81.4h42.46V38.94Zm-40.36,14.7V15.42h38.22V38.94H292.16v14.7Zm38.22-12.56V53.64H294.3V41.08Zm25.64,38.18H294.3V55.78H309V41.08h23.5Z" transform="translate(-2.24 -2.24)"/></g></svg>